<?xml version="1.0" encoding="utf-8"?><!DOCTYPE svg PUBLIC "-//W3C//DTD SVG 1.1//EN" "http://www.w3.org/Graphics/SVG/1.1/DTD/svg11.dtd"><svg id="%E5%A4%9A%E4%BA%91" width="256" height="256" style="width:256px;height:256px;" version="1.1" xmlns="http://www.w3.org/2000/svg" viewBox="0 0 1024 1024" enable-background="new 0 0 1024 1024" xml:space="preserve"><path fill="#666" d="M985.74 492.87 q16.91 0 27.58 -10.67 q10.68 -10.68 10.68 -27.58 q0 -16.02 -10.68 -26.69 q-10.67 -10.68 -27.58 -10.68 l-75.62 0 q-16.01 0 -26.69 10.68 q-10.67 10.67 -10.67 26.69 q0 16.9 10.67 27.58 q10.68 10.67 26.69 10.67 l75.62 0 l0 0 ZM837.17 240.21 l53.38 -53.38 q11.57 -11.57 11.57 -26.69 q0 -15.13 -11.57 -26.69 q-11.56 -11.57 -26.69 -11.57 q-15.12 0 -26.69 11.57 l-53.38 53.38 q-11.56 11.56 -11.56 26.69 q0 15.12 11.56 26.69 q11.57 11.56 26.69 11.56 q15.13 0 26.69 -11.56 l0 0 ZM781.12 536.47 q15.13 -38.26 15.13 -81.85 q-1.78 -96.09 -66.73 -160.14 q-64.05 -64.95 -161.03 -66.73 q-55.16 0 -101.42 24.02 q-46.26 23.14 -77.4 64.06 q-41.81 -12.46 -86.3 -12.46 q-129 3.56 -214.4 88.97 q-85.41 85.41 -88.97 214.41 q3.56 129 88.97 214.41 q85.4 85.4 214.4 88.96 l303.38 0 q96.97 -2.67 161.03 -66.72 q64.05 -64.06 66.72 -161.03 q0 -41.81 -14.23 -79.18 q-14.24 -36.48 -39.15 -66.72 l0 0 ZM75.62 606.75 q2.67 -96.97 66.73 -161.03 q64.05 -64.06 161.02 -66.72 q82.74 1.77 142.35 50.71 q59.61 48.04 79.18 125.44 q17.79 -11.57 38.26 -17.79 q20.46 -6.23 43.59 -6.23 q64.94 0.89 107.65 44.48 q42.7 42.7 44.48 106.76 q-1.78 64.95 -44.48 107.65 q-42.71 42.7 -107.65 44.48 l-303.38 0 q-96.97 -2.67 -161.02 -66.72 q-64.06 -64.06 -66.73 -161.03 l0 0 ZM568.49 303.37 q64.95 1.78 107.65 44.49 q42.71 42.7 44.49 106.76 q0 15.12 -2.67 29.36 q-24.91 -14.24 -52.49 -21.36 q-28.47 -8 -58.72 -8 q-19.57 0.89 -38.26 4.45 q-19.57 -34.7 -46.26 -62.28 q-27.58 -28.47 -60.5 -48.93 q20.47 -20.46 48.05 -32.48 q27.58 -12.01 58.71 -12.01 l0 0 ZM568.49 151.24 q16.91 0 27.58 -10.67 q10.68 -10.68 10.68 -26.69 l0 -76.51 q0 -16.02 -10.68 -26.69 q-10.67 -10.68 -27.58 -10.68 q-16.01 0 -26.69 10.68 q-10.67 10.67 -10.67 26.69 l0 76.51 q0 16.01 10.67 26.69 q10.68 10.67 26.69 10.67 l0 0 ZM300.71 240.21 q11.56 11.56 26.69 11.56 q15.12 0 26.69 -11.56 q11.56 -11.57 11.56 -26.69 q0 -15.13 -11.56 -26.69 l-53.38 -53.38 q-11.57 -11.57 -26.69 -11.57 q-15.13 0 -26.69 11.57 q-11.57 11.56 -11.57 26.69 q0 15.12 11.57 26.69 l53.38 53.38 l0 0 Z"/></svg>